<svg xmlns="http://www.w3.org/2000/svg" viewBox="0 0 512 512" role="img" aria-labelledby="title desc">
  <title id="title">CRV4</title>
  <desc id="desc">Logotipo CRV4 con un diamante coral y un aro turquesa</desc>
  <g fill="none" stroke="#0d6568" stroke-linecap="round" stroke-width="30">
    <path d="M78 218a193 193 0 0 1 112-125" />
    <path d="M322 93a193 193 0 0 1 112 125" />
    <path d="M80 342a193 193 0 0 0 352 0" />
  </g>
  <path d="M256 40 335 110 256 218 177 110Z" fill="#ff5542" />
  <path d="m177 110 79-70 79 70-44 4-35-29-35 29Z" fill="#ff6752" />
  <path d="m177 110 79 4 79-4-79 108Z" fill="#f24738" />
  <path d="m256 114 35-29 44 25-79 108-79-108 44-25Z" fill="none" stroke="#fff" stroke-linejoin="round" stroke-width="8" />
  <text x="256" y="353" fill="#0d6568" font-family="Arial, Helvetica, sans-serif" font-size="132" font-weight="900" letter-spacing="-11" text-anchor="middle">CRV4</text>
</svg>
